<?xml version="1.0" encoding="UTF-8"?>
<svg xmlns="http://www.w3.org/2000/svg" version="1.1" width="2000" height="2000" style="background: transparent;">
<path d="M0 0 C660 0 1320 0 2000 0 C2000 660 2000 1320 2000 2000 C1340 2000 680 2000 0 2000 C0 1340 0 680 0 0 Z " fill="#FEFEFE" transform="translate(0,0)"/>
<path d="M0 0 C145.53 0 291.06 0 441 0 C441 11.22 441 22.44 441 34 C451.89 34 462.78 34 474 34 C474 112.21 474 190.42 474 271 C462.78 271 451.56 271 440 271 C440 282.22 440 293.44 440 305 C361.79 305 283.58 305 203 305 C203 316.22 203 327.44 203 339 C270.32 339 337.64 339 407 339 C407 350.22 407 361.44 407 373 C395.78 373 384.56 373 373 373 C373 384.22 373 395.44 373 407 C316.9 407 260.8 407 203 407 C203 440.66 203 474.32 203 509 C192.11 509 181.22 509 170 509 C170 531.11 170 553.22 170 576 C203.33 576 236.66 576 271 576 C271 620.88 271 665.76 271 712 C248.56 712 226.12 712 203 712 C203 689.56 203 667.12 203 644 C191.78 644 180.56 644 169 644 C169 677.66 169 711.32 169 746 C158.11 746 147.22 746 136 746 C136 768.44 136 790.88 136 814 C124.78 814 113.56 814 102 814 C102 824.89 102 835.78 102 847 C90.78 847 79.56 847 68 847 C68 858.22 68 869.44 68 881 C56.78 881 45.56 881 34 881 C34 892.22 34 903.44 34 915 C22.78 915 11.56 915 0 915 C0 959.55 0 1004.1 0 1050 C-11.22 1050 -22.44 1050 -34 1050 C-34 1072.44 -34 1094.88 -34 1118 C-22.78 1118 -11.56 1118 0 1118 C0 1129.22 0 1140.44 0 1152 C-44.88 1152 -89.76 1152 -136 1152 C-136 1107.45 -136 1062.9 -136 1017 C-169.33 1017 -202.66 1017 -237 1017 C-237 1027.89 -237 1038.78 -237 1050 C-248.22 1050 -259.44 1050 -271 1050 C-271 1072.44 -271 1094.88 -271 1118 C-259.78 1118 -248.56 1118 -237 1118 C-237 1129.22 -237 1140.44 -237 1152 C-281.88 1152 -326.76 1152 -373 1152 C-373 1085.01 -373 1018.02 -373 949 C-384.22 949 -395.44 949 -407 949 C-407 937.78 -407 926.56 -407 915 C-418.22 915 -429.44 915 -441 915 C-441 903.78 -441 892.56 -441 881 C-451.89 881 -462.78 881 -474 881 C-474 869.78 -474 858.56 -474 847 C-485.22 847 -496.44 847 -508 847 C-508 835.78 -508 824.56 -508 813 C-519.22 813 -530.44 813 -542 813 C-542 802.11 -542 791.22 -542 780 C-553.22 780 -564.44 780 -576 780 C-576 768.78 -576 757.56 -576 746 C-587.22 746 -598.44 746 -610 746 C-610 667.46 -610 588.92 -610 508 C-598.78 508 -587.56 508 -576 508 C-576 497.11 -576 486.22 -576 475 C-564.78 475 -553.56 475 -542 475 C-542 485.89 -542 496.78 -542 508 C-530.78 508 -519.56 508 -508 508 C-508 519.22 -508 530.44 -508 542 C-496.78 542 -485.56 542 -474 542 C-474 553.22 -474 564.44 -474 576 C-463.11 576 -452.22 576 -441 576 C-441 587.22 -441 598.44 -441 610 C-429.78 610 -418.56 610 -407 610 C-407 621.22 -407 632.44 -407 644 C-373.34 644 -339.68 644 -305 644 C-305 632.78 -305 621.56 -305 610 C-293.78 610 -282.56 610 -271 610 C-271 598.78 -271 587.56 -271 576 C-259.78 576 -248.56 576 -237 576 C-237 564.78 -237 553.56 -237 542 C-225.78 542 -214.56 542 -203 542 C-203 531.11 -203 520.22 -203 509 C-191.78 509 -180.56 509 -169 509 C-169 497.78 -169 486.56 -169 475 C-158.11 475 -147.22 475 -136 475 C-136 463.45 -136 451.9 -136 440 C-124.78 440 -113.56 440 -102 440 C-102 328.46 -102 216.92 -102 102 C-90.78 102 -79.56 102 -68 102 C-68 113.22 -68 124.44 -68 136 C-56.78 136 -45.56 136 -34 136 C-34 147.22 -34 158.44 -34 170 C-45.22 170 -56.44 170 -68 170 C-68 181.22 -68 192.44 -68 204 C-56.78 204 -45.56 204 -34 204 C-34 214.89 -34 225.78 -34 237 C-45.22 237 -56.44 237 -68 237 C-68 248.22 -68 259.44 -68 271 C-56.78 271 -45.56 271 -34 271 C-34 282.22 -34 293.44 -34 305 C-22.78 305 -11.56 305 0 305 C0 293.78 0 282.56 0 271 C11.22 271 22.44 271 34 271 C34 259.78 34 248.56 34 237 C22.78 237 11.56 237 0 237 C0 226.11 0 215.22 0 204 C11.22 204 22.44 204 34 204 C34 192.78 34 181.56 34 170 C22.78 170 11.56 170 0 170 C0 158.78 0 147.56 0 136 C11.22 136 22.44 136 34 136 C34 124.78 34 113.56 34 102 C45.22 102 56.44 102 68 102 C68 90.78 68 79.56 68 68 C56.78 68 45.56 68 34 68 C34 56.78 34 45.56 34 34 C22.78 34 11.56 34 0 34 C0 22.78 0 11.56 0 0 Z " fill="#000000" transform="translate(1068,424)"/>
<path d="M0 0 C11.22 0 22.44 0 34 0 C34 10.89 34 21.78 34 33 C45.22 33 56.44 33 68 33 C68 44.55 68 56.1 68 68 C56.78 68 45.56 68 34 68 C34 78.89 34 89.78 34 101 C22.78 101 11.56 101 0 101 C0 112.55 0 124.1 0 136 C-10.89 136 -21.78 136 -33 136 C-33 146.89 -33 157.78 -33 169 C-44.22 169 -55.44 169 -67 169 C-67 180.22 -67 191.44 -67 203 C-78.22 203 -89.44 203 -101 203 C-101 214.22 -101 225.44 -101 237 C-112.22 237 -123.44 237 -135 237 C-135 248.22 -135 259.44 -135 271 C-146.22 271 -157.44 271 -169 271 C-169 259.78 -169 248.56 -169 237 C-180.22 237 -191.44 237 -203 237 C-203 225.78 -203 214.56 -203 203 C-191.78 203 -180.56 203 -169 203 C-169 191.78 -169 180.56 -169 169 C-158.11 169 -147.22 169 -136 169 C-136 157.78 -136 146.56 -136 135 C-124.78 135 -113.56 135 -102 135 C-102 123.78 -102 112.56 -102 101 C-90.78 101 -79.56 101 -68 101 C-68 89.78 -68 78.56 -68 67 C-56.78 67 -45.56 67 -34 67 C-34 55.78 -34 44.56 -34 33 C-22.78 33 -11.56 33 0 33 C0 22.11 0 11.22 0 0 Z " fill="#FDFDFD" transform="translate(1000,865)"/>
<path d="M0 0 C22.44 0 44.88 0 68 0 C68 11.22 68 22.44 68 34 C79.22 34 90.44 34 102 34 C102 45.22 102 56.44 102 68 C90.78 68 79.56 68 68 68 C68 79.22 68 90.44 68 102 C56.78 102 45.56 102 34 102 C34 113.22 34 124.44 34 136 C45.22 136 56.44 136 68 136 C68 147.22 68 158.44 68 170 C56.78 170 45.56 170 34 170 C34 180.89 34 191.78 34 203 C45.22 203 56.44 203 68 203 C68 214.22 68 225.44 68 237 C56.78 237 45.56 237 34 237 C34 248.22 34 259.44 34 271 C22.78 271 11.56 271 0 271 C0 259.78 0 248.56 0 237 C-11.22 237 -22.44 237 -34 237 C-34 225.78 -34 214.56 -34 203 C-22.78 203 -11.56 203 0 203 C0 192.11 0 181.22 0 170 C-11.22 170 -22.44 170 -34 170 C-34 158.78 -34 147.56 -34 136 C-22.78 136 -11.56 136 0 136 C0 124.78 0 113.56 0 102 C-11.22 102 -22.44 102 -34 102 C-34 79.56 -34 57.12 -34 34 C-22.78 34 -11.56 34 0 34 C0 22.78 0 11.56 0 0 Z " fill="#FCFCFC" transform="translate(1034,458)"/>
<path d="M0 0 C11.22 0 22.44 0 34 0 C34 11.22 34 22.44 34 34 C23.11 34 12.22 34 1 34 C1 45.22 1 56.44 1 68 C11.89 68 22.78 68 34 68 C34 79.22 34 90.44 34 102 C23.11 102 12.22 102 1 102 C1 113.22 1 124.44 1 136 C-10.22 136 -21.44 136 -33 136 C-33 147.22 -33 158.44 -33 170 C-44.22 170 -55.44 170 -67 170 C-67 158.78 -67 147.56 -67 136 C-78.22 136 -89.44 136 -101 136 C-101 124.78 -101 113.56 -101 102 C-89.78 102 -78.56 102 -67 102 C-67 90.78 -67 79.56 -67 68 C-56.11 68 -45.22 68 -34 68 C-34 56.78 -34 45.56 -34 34 C-22.78 34 -11.56 34 0 34 C0 22.78 0 11.56 0 0 Z " fill="#FBFBFB" transform="translate(898,966)"/>
<path d="M0 0 C11.22 0 22.44 0 34 0 C34 11.22 34 22.44 34 34 C45.22 34 56.44 34 68 34 C68 45.22 68 56.44 68 68 C56.78 68 45.56 68 34 68 C34 78.89 34 89.78 34 101 C45.22 101 56.44 101 68 101 C68 112.22 68 123.44 68 135 C56.78 135 45.56 135 34 135 C34 146.22 34 157.44 34 169 C22.78 169 11.56 169 0 169 C0 157.78 0 146.56 0 135 C-11.22 135 -22.44 135 -34 135 C-34 123.78 -34 112.56 -34 101 C-22.78 101 -11.56 101 0 101 C0 90.11 0 79.22 0 68 C-11.22 68 -22.44 68 -34 68 C-34 56.78 -34 45.56 -34 34 C-22.78 34 -11.56 34 0 34 C0 22.78 0 11.56 0 0 Z " fill="#F2F2F2" transform="translate(1034,560)"/>
<path d="M0 0 C11.22 0 22.44 0 34 0 C34 11.22 34 22.44 34 34 C44.89 34 55.78 34 67 34 C67 45.22 67 56.44 67 68 C56.11 68 45.22 68 34 68 C34 79.22 34 90.44 34 102 C22.78 102 11.56 102 0 102 C0 90.78 0 79.56 0 68 C-11.22 68 -22.44 68 -34 68 C-34 56.78 -34 45.56 -34 34 C-22.78 34 -11.56 34 0 34 C0 22.78 0 11.56 0 0 Z " fill="#020202" transform="translate(526,1000)"/>
<path d="M0 0 C11.22 0 22.44 0 34 0 C34 11.22 34 22.44 34 34 C45.22 34 56.44 34 68 34 C68 45.22 68 56.44 68 68 C34.34 68 0.68 68 -34 68 C-34 56.78 -34 45.56 -34 34 C-22.78 34 -11.56 34 0 34 C0 22.78 0 11.56 0 0 Z " fill="#F2F2F2" transform="translate(1034,560)"/>
<path d="M0 0 C22.44 0 44.88 0 68 0 C68 22.44 68 44.88 68 68 C45.56 68 23.12 68 0 68 C0 45.56 0 23.12 0 0 Z " fill="#FCFCFC" transform="translate(1136,526)"/>
<path d="M0 0 C11.22 0 22.44 0 34 0 C34 11.22 34 22.44 34 34 C22.78 34 11.56 34 0 34 C0 22.78 0 11.56 0 0 Z " fill="#FBFBFB" transform="translate(797,1136)"/>
<path d="M0 0 C11.22 0 22.44 0 34 0 C34 11.22 34 22.44 34 34 C22.78 34 11.56 34 0 34 C0 22.78 0 11.56 0 0 Z " fill="#FCFCFC" transform="translate(729,1136)"/>
<path d="M0 0 C11.22 0 22.44 0 34 0 C34 11.22 34 22.44 34 34 C22.78 34 11.56 34 0 34 C0 22.78 0 11.56 0 0 Z " fill="#FAFAFA" transform="translate(661,1136)"/>
<path d="M0 0 C11.22 0 22.44 0 34 0 C34 11.22 34 22.44 34 34 C22.78 34 11.56 34 0 34 C0 22.78 0 11.56 0 0 Z " fill="#FCFCFC" transform="translate(763,1102)"/>
<path d="M0 0 C11.22 0 22.44 0 34 0 C34 11.22 34 22.44 34 34 C22.78 34 11.56 34 0 34 C0 22.78 0 11.56 0 0 Z " fill="#FBFBFB" transform="translate(695,1102)"/>
<path d="M0 0 C11.22 0 22.44 0 34 0 C34 11.22 34 22.44 34 34 C22.78 34 11.56 34 0 34 C0 22.78 0 11.56 0 0 Z " fill="#FBFBFB" transform="translate(526,1068)"/>
<path d="M0 0 C11.22 0 22.44 0 34 0 C34 11.22 34 22.44 34 34 C22.78 34 11.56 34 0 34 C0 22.78 0 11.56 0 0 Z " fill="#FDFDFD" transform="translate(492,1034)"/>
<path d="M0 0 C11.22 0 22.44 0 34 0 C34 11.22 34 22.44 34 34 C22.78 34 11.56 34 0 34 C0 22.78 0 11.56 0 0 Z " fill="#FBFBFB" transform="translate(526,1000)"/>
<path d="M0 0 C11.22 0 22.44 0 34 0 C34 11.22 34 22.44 34 34 C22.78 34 11.56 34 0 34 C0 22.78 0 11.56 0 0 Z " fill="#FCFCFC" transform="translate(492,966)"/>
<path d="M0 0 C11.22 0 22.44 0 34 0 C34 11.22 34 22.44 34 34 C22.78 34 11.56 34 0 34 C0 22.78 0 11.56 0 0 Z " fill="#FCFCFC" transform="translate(1034,831)"/>
<path d="M0 0 C11.22 0 22.44 0 34 0 C34 11.22 34 22.44 34 34 C22.78 34 11.56 34 0 34 C0 22.78 0 11.56 0 0 Z " fill="#FBFBFB" transform="translate(1000,797)"/>
<path d="M0 0 C11.22 0 22.44 0 34 0 C34 11.22 34 22.44 34 34 C22.78 34 11.56 34 0 34 C0 22.78 0 11.56 0 0 Z " fill="#FEFEFE" transform="translate(1034,763)"/>
<path d="M0 0 C11.22 0 22.44 0 34 0 C34 11.22 34 22.44 34 34 C22.78 34 11.56 34 0 34 C0 22.78 0 11.56 0 0 Z " fill="#FBFBFB" transform="translate(1000,729)"/>
<path d="M0 0 C11.22 0 22.44 0 34 0 C34 11.22 34 22.44 34 34 C22.78 34 11.56 34 0 34 C0 22.78 0 11.56 0 0 Z " fill="#FCFCFC" transform="translate(1034,695)"/>
<path d="M0 0 C11.22 0 22.44 0 34 0 C34 11.22 34 22.44 34 34 C22.78 34 11.56 34 0 34 C0 22.78 0 11.56 0 0 Z " fill="#FCFCFC" transform="translate(1034,560)"/>
<path d="M0 0 C11.22 0 22.44 0 34 0 C34 11.22 34 22.44 34 34 C22.78 34 11.56 34 0 34 C0 22.78 0 11.56 0 0 Z " fill="#FCFCFC" transform="translate(1068,526)"/>
<path d="M0 0 C11.22 0 22.44 0 34 0 C34 11.22 34 22.44 34 34 C22.78 34 11.56 34 0 34 C0 22.78 0 11.56 0 0 Z " fill="#020202" transform="translate(1034,526)"/>
<path d="M0 0 C11.22 0 22.44 0 34 0 C34 11.22 34 22.44 34 34 C22.78 34 11.56 34 0 34 C0 22.78 0 11.56 0 0 Z " fill="#FBFBFB" transform="translate(1000,526)"/>
<path d="M0 0 C11.22 0 22.44 0 34 0 C34 11.22 34 22.44 34 34 C22.78 34 11.56 34 0 34 C0 22.78 0 11.56 0 0 Z " fill="#FBFBFB" transform="translate(1102,492)"/>
<path d="M0 0 C11.22 0 22.44 0 34 0 C34 11.22 34 22.44 34 34 C22.78 34 11.56 34 0 34 C0 22.78 0 11.56 0 0 Z " fill="#020202" transform="translate(1068,492)"/>
<path d="M0 0 C11.22 0 22.44 0 34 0 C34 11.22 34 22.44 34 34 C22.78 34 11.56 34 0 34 C0 22.78 0 11.56 0 0 Z " fill="#030303" transform="translate(1000,492)"/>
<path d="M0 0 C11.22 0 22.44 0 34 0 C34 11.22 34 22.44 34 34 C22.78 34 11.56 34 0 34 C0 22.78 0 11.56 0 0 Z " fill="#FCFCFC" transform="translate(1136,458)"/>
<path d="M0 0 C11.22 0 22.44 0 34 0 C34 11.22 34 22.44 34 34 C22.78 34 11.56 34 0 34 C0 22.78 0 11.56 0 0 Z " fill="#FDFDFD" transform="translate(1068,458)"/>
<path d="M0 0 C11.22 0 22.44 0 34 0 C34 11.22 34 22.44 34 34 C22.78 34 11.56 34 0 34 C0 22.78 0 11.56 0 0 Z " fill="#000000" transform="translate(1034,458)"/>
<path d="M0 0 C10.89 0 21.78 0 33 0 C33 11.22 33 22.44 33 34 C22.11 34 11.22 34 0 34 C0 22.78 0 11.56 0 0 Z " fill="#FDFDFD" transform="translate(594,1136)"/>
<path d="M0 0 C10.89 0 21.78 0 33 0 C33 11.22 33 22.44 33 34 C22.11 34 11.22 34 0 34 C0 22.78 0 11.56 0 0 Z " fill="#FDFDFD" transform="translate(628,1102)"/>
<path d="M0 0 C10.89 0 21.78 0 33 0 C33 11.22 33 22.44 33 34 C22.11 34 11.22 34 0 34 C0 22.78 0 11.56 0 0 Z " fill="#FDFDFD" transform="translate(594,1068)"/>
<path d="M0 0 C10.89 0 21.78 0 33 0 C33 11.22 33 22.44 33 34 C22.11 34 11.22 34 0 34 C0 22.78 0 11.56 0 0 Z " fill="#FFFFFF" transform="translate(899,1034)"/>
<path d="M0 0 C10.89 0 21.78 0 33 0 C33 11.22 33 22.44 33 34 C22.11 34 11.22 34 0 34 C0 22.78 0 11.56 0 0 Z " fill="#000000" transform="translate(865,1034)"/>
<path d="M0 0 C10.89 0 21.78 0 33 0 C33 11.22 33 22.44 33 34 C22.11 34 11.22 34 0 34 C0 22.78 0 11.56 0 0 Z " fill="#FFFFFF" transform="translate(831,1034)"/>
<path d="M0 0 C10.89 0 21.78 0 33 0 C33 11.22 33 22.44 33 34 C22.11 34 11.22 34 0 34 C0 22.78 0 11.56 0 0 Z " fill="#FFFFFF" transform="translate(560,1034)"/>
<path d="M0 0 C10.89 0 21.78 0 33 0 C33 11.22 33 22.44 33 34 C22.11 34 11.22 34 0 34 C0 22.78 0 11.56 0 0 Z " fill="#010101" transform="translate(899,1000)"/>
<path d="M0 0 C10.89 0 21.78 0 33 0 C33 11.22 33 22.44 33 34 C22.11 34 11.22 34 0 34 C0 22.78 0 11.56 0 0 Z " fill="#FDFDFD" transform="translate(899,966)"/>
<path d="M0 0 C11.22 0 22.44 0 34 0 C34 10.89 34 21.78 34 33 C22.78 33 11.56 33 0 33 C0 22.11 0 11.22 0 0 Z " fill="#FDFDFD" transform="translate(1000,933)"/>
<path d="M0 0 C11.22 0 22.44 0 34 0 C34 10.89 34 21.78 34 33 C22.78 33 11.56 33 0 33 C0 22.11 0 11.22 0 0 Z " fill="#FEFEFE" transform="translate(1034,899)"/>
<path d="M0 0 C11.22 0 22.44 0 34 0 C34 10.89 34 21.78 34 33 C22.78 33 11.56 33 0 33 C0 22.11 0 11.22 0 0 Z " fill="#010101" transform="translate(1000,899)"/>
<path d="M0 0 C11.22 0 22.44 0 34 0 C34 10.89 34 21.78 34 33 C22.78 33 11.56 33 0 33 C0 22.11 0 11.22 0 0 Z " fill="#FDFDFD" transform="translate(1068,662)"/>
<path d="M0 0 C11.22 0 22.44 0 34 0 C34 10.89 34 21.78 34 33 C22.78 33 11.56 33 0 33 C0 22.11 0 11.22 0 0 Z " fill="#000000" transform="translate(1034,662)"/>
<path d="M0 0 C11.22 0 22.44 0 34 0 C34 10.89 34 21.78 34 33 C22.78 33 11.56 33 0 33 C0 22.11 0 11.22 0 0 Z " fill="#FEFEFE" transform="translate(1034,628)"/>
<path d="M0 0 C11.22 0 22.44 0 34 0 C34 10.89 34 21.78 34 33 C22.78 33 11.56 33 0 33 C0 22.11 0 11.22 0 0 Z " fill="#FDFDFD" transform="translate(1068,594)"/>
<path d="M0 0 C11.22 0 22.44 0 34 0 C34 10.89 34 21.78 34 33 C22.78 33 11.56 33 0 33 C0 22.11 0 11.22 0 0 Z " fill="#000000" transform="translate(1034,594)"/>
<path d="M0 0 C10.89 0 21.78 0 33 0 C33 11.22 33 22.44 33 34 C22.11 34 11.22 34 0 34 C0 22.78 0 11.56 0 0 Z " fill="#FFFFFF" transform="translate(1204,458)"/>
<path d="M0 0 C10.89 0 21.78 0 33 0 C33 10.89 33 21.78 33 33 C22.11 33 11.22 33 0 33 C0 22.11 0 11.22 0 0 Z " fill="#FFFFFF" transform="translate(831,1102)"/>
<path d="M0 0 C10.89 0 21.78 0 33 0 C33 10.89 33 21.78 33 33 C22.11 33 11.22 33 0 33 C0 22.11 0 11.22 0 0 Z " fill="#FFFFFF" transform="translate(560,1102)"/>
<path d="M0 0 C10.89 0 21.78 0 33 0 C33 10.89 33 21.78 33 33 C22.11 33 11.22 33 0 33 C0 22.11 0 11.22 0 0 Z " fill="#FFFFFF" transform="translate(865,1068)"/>
<path d="M0 0 C10.89 0 21.78 0 33 0 C33 10.89 33 21.78 33 33 C22.11 33 11.22 33 0 33 C0 22.11 0 11.22 0 0 Z " fill="#000000" transform="translate(831,1068)"/>
<path d="M0 0 C10.89 0 21.78 0 33 0 C33 10.89 33 21.78 33 33 C22.11 33 11.22 33 0 33 C0 22.11 0 11.22 0 0 Z " fill="#FFFFFF" transform="translate(933,1001)"/>
<path d="M0 0 C10.89 0 21.78 0 33 0 C33 10.89 33 21.78 33 33 C22.11 33 11.22 33 0 33 C0 22.11 0 11.22 0 0 Z " fill="#FFFFFF" transform="translate(865,1001)"/>
<path d="M0 0 C10.89 0 21.78 0 33 0 C33 10.89 33 21.78 33 33 C22.11 33 11.22 33 0 33 C0 22.11 0 11.22 0 0 Z " fill="#FFFFFF" transform="translate(967,967)"/>
<path d="M0 0 C10.89 0 21.78 0 33 0 C33 10.89 33 21.78 33 33 C22.11 33 11.22 33 0 33 C0 22.11 0 11.22 0 0 Z " fill="#000000" transform="translate(933,967)"/>
<path d="M0 0 C10.89 0 21.78 0 33 0 C33 10.89 33 21.78 33 33 C22.11 33 11.22 33 0 33 C0 22.11 0 11.22 0 0 Z " fill="#000000" transform="translate(967,933)"/>
<path d="M0 0 C10.89 0 21.78 0 33 0 C33 10.89 33 21.78 33 33 C22.11 33 11.22 33 0 33 C0 22.11 0 11.22 0 0 Z " fill="#FFFFFF" transform="translate(933,933)"/>
<path d="M0 0 C10.89 0 21.78 0 33 0 C33 10.89 33 21.78 33 33 C22.11 33 11.22 33 0 33 C0 22.11 0 11.22 0 0 Z " fill="#FFFFFF" transform="translate(967,899)"/>
<path d="M0 0 C33.66 0 67.32 0 102 0 C102 0.33 102 0.66 102 1 C68.67 1 35.34 1 1 1 C1 11.89 1 22.78 1 34 C34.33 34 67.66 34 102 34 C102 34.33 102 34.66 102 35 C68.67 35 35.34 35 1 35 C1 45.89 1 56.78 1 68 C11.89 68 22.78 68 34 68 C34 68.33 34 68.66 34 69 C23.11 69 12.22 69 1 69 C1 79.89 1 90.78 1 102 C11.89 102 22.78 102 34 102 C34 102.33 34 102.66 34 103 C23.11 103 12.22 103 1 103 C1 113.89 1 124.78 1 136 C0.67 136 0.34 136 0 136 C0 125.11 0 114.22 0 103 C-10.89 103 -21.78 103 -33 103 C-33 125.11 -33 147.22 -33 170 C-33.33 170 -33.66 170 -34 170 C-34 125.12 -34 80.24 -34 34 C-22.78 34 -11.56 34 0 34 C0 22.78 0 11.56 0 0 Z M-33 35 C-33 45.89 -33 56.78 -33 68 C-22.11 68 -11.22 68 0 68 C0 57.11 0 46.22 0 35 C-10.89 35 -21.78 35 -33 35 Z M-33 69 C-33 79.89 -33 90.78 -33 102 C-22.11 102 -11.22 102 0 102 C0 91.11 0 80.22 0 69 C-10.89 69 -21.78 69 -33 69 Z " fill="#7F7F7F" transform="translate(966,898)"/>
<path d="M0 0 C0.33 0 0.66 0 1 0 C1 44.88 1 89.76 1 136 C-10.22 136 -21.44 136 -33 136 C-33 147.22 -33 158.44 -33 170 C-44.22 170 -55.44 170 -67 170 C-67 169.67 -67 169.34 -67 169 C-56.11 169 -45.22 169 -34 169 C-34 158.11 -34 147.22 -34 136 C-44.89 136 -55.78 136 -67 136 C-67 135.67 -67 135.34 -67 135 C-56.11 135 -45.22 135 -34 135 C-34 101.67 -34 68.34 -34 34 C-22.78 34 -11.56 34 0 34 C0 22.78 0 11.56 0 0 Z M-33 35 C-33 68 -33 101 -33 135 C-22.11 135 -11.22 135 0 135 C0 102 0 69 0 35 C-10.89 35 -21.78 35 -33 35 Z " fill="#898989" transform="translate(898,966)"/>
<path d="M0 0 C0.33 0 0.66 0 1 0 C1 33.33 1 66.66 1 101 C11.89 101 22.78 101 34 101 C34 78.89 34 56.78 34 34 C34.33 34 34.66 34 35 34 C35 44.89 35 55.78 35 67 C45.89 67 56.78 67 68 67 C68 67.33 68 67.66 68 68 C57.11 68 46.22 68 35 68 C35 90.44 35 112.88 35 136 C34.67 136 34.34 136 34 136 C34 124.78 34 113.56 34 102 C23.11 102 12.22 102 1 102 C1 113.22 1 124.44 1 136 C0.67 136 0.34 136 0 136 C0 124.78 0 113.56 0 102 C-10.89 102 -21.78 102 -33 102 C-33 101.67 -33 101.34 -33 101 C-22.11 101 -11.22 101 0 101 C0 90.11 0 79.22 0 68 C-10.89 68 -21.78 68 -33 68 C-33 67.67 -33 67.34 -33 67 C-22.11 67 -11.22 67 0 67 C0 44.89 0 22.78 0 0 Z " fill="#737373" transform="translate(593,1034)"/>
</svg>