<svg xmlns="http://www.w3.org/2000/svg" xmlns:xlink="http://www.w3.org/1999/xlink" aria-hidden="true" role="img" width="64" height="64" viewBox="0 0 24 24" style="color: rgb(74, 85, 101); --darkreader-inline-color: var(--darkreader-text-4a5565, #b1aaa0);"><g fill="none" stroke="currentColor" stroke-linecap="round" stroke-linejoin="round" stroke-width="1.5" style="--darkreader-inline-stroke: currentColor;"><path d="M20 13V5.749a.6.6 0 0 0-.176-.425l-3.148-3.148A.6.6 0 0 0 16.252 2H4.6a.6.6 0 0 0-.6.6v18.8a.6.6 0 0 0 .6.6H14"></path><path d="M16 2v3.4a.6.6 0 0 0 .6.6H20m-4 13h6m0 0l-3-3m3 3l-3 3"></path></g></svg>