<?xml version="1.0" encoding="UTF-8"?>
<svg version="1.1" xmlns="http://www.w3.org/2000/svg" width="150" height="150">
<path d="M0 0 C49.5 0 99 0 150 0 C150 49.5 150 99 150 150 C100.5 150 51 150 0 150 C0 100.5 0 51 0 0 Z " fill="#252E24" transform="translate(0,0)"/>
<path d="M0 0 C4.79801866 3.27348693 7.80282644 7.66846557 10.99511719 12.41308594 C17.29288267 21.72985806 25.22974514 28.67352014 34.42578125 35.1015625 C39.07285705 38.55454518 41.96704936 42.34660259 43.8125 47.875 C44.72792367 55.31402184 44.44328653 61.64068755 40.296875 68.01171875 C37.22351103 71.86959931 33.89932091 74.29355726 29.51953125 76.63671875 C25.58009092 78.87221126 22.53669291 81.65708 19.375 84.875 C18.81079346 85.44025391 18.24658691 86.00550781 17.6652832 86.58789062 C13.2419313 91.14493788 10.01369123 95.94216717 6.66015625 101.33203125 C3.99173201 105.00464051 0.88459969 106.99189287 -3.1875 108.875 C-4.1775 109.37 -4.1775 109.37 -5.1875 109.875 C-13.13271354 110.71864499 -20.10313908 110.73872599 -26.828125 106.1015625 C-30.26126165 102.86168189 -32.80966549 99.16826443 -35.44067383 95.26660156 C-42.73894457 84.4566702 -52.43381959 77.04412027 -63.1875 69.875 C-63.1875 68.885 -63.1875 67.895 -63.1875 66.875 C-63.8475 66.875 -64.5075 66.875 -65.1875 66.875 C-68.84856828 60.16304148 -69.57194471 53.01224766 -67.56640625 45.5703125 C-65.12581259 39.99491187 -60.90441148 36.54555435 -56.1875 32.875 C-55.4140625 32.26398437 -54.640625 31.65296875 -53.84375 31.0234375 C-52.35623516 29.85821754 -50.86333368 28.69981592 -49.36328125 27.55078125 C-48.64527344 26.99777344 -47.92726563 26.44476563 -47.1875 25.875 C-46.36378906 25.26527344 -45.54007813 24.65554687 -44.69140625 24.02734375 C-41.90010347 21.62795556 -39.95681704 19.11310967 -37.8125 16.125 C-28.30382389 3.23720759 -17.48929316 -8.92367084 0 0 Z " fill="#53D24E" transform="translate(87.1875,21.125)"/>
<path d="M0 0 C0 6.6 0 13.2 0 20 C6.6 20 13.2 20 20 20 C20 13.4 20 6.8 20 0 C29 1 29 1 32 3.4375 C35.06647659 7.36642313 35.11997569 9.36539599 35.09765625 14.3203125 C35.09515869 15.45227051 35.09266113 16.58422852 35.09008789 17.75048828 C35.08098389 19.19407715 35.07187988 20.63766602 35.0625 22.125 C35.041875 26.70375 35.02125 31.2825 35 36 C18.5 36 2 36 -15 36 C-15.061875 31.483125 -15.12375 26.96625 -15.1875 22.3125 C-15.21481201 20.89622314 -15.24212402 19.47994629 -15.27026367 18.02075195 C-15.27775635 16.89628662 -15.28524902 15.77182129 -15.29296875 14.61328125 C-15.3086792 13.46641846 -15.32438965 12.31955566 -15.34057617 11.13793945 C-14.85023096 6.62008499 -13.26251732 4.01702784 -9.75 1.1875 C-7 0 -7 0 0 0 Z " fill="#F6FBF7" transform="translate(65,47)"/>
<path d="M0 0 C3.77890442 3.14908702 7.34960124 6.32003766 10.75 9.875 C13.83950583 13.03075254 17.07588667 15.58475116 20.6875 18.125 C26.51420057 22.24888364 30.75138001 26.02630627 33 33 C33.1953125 36.33203125 33.1953125 36.33203125 33.125 39.8125 C33.10695313 40.97394531 33.08890625 42.13539062 33.0703125 43.33203125 C33.04710937 44.21246094 33.02390625 45.09289062 33 46 C32.01 46.495 32.01 46.495 31 47 C30.93941406 45.97519531 30.87882812 44.95039062 30.81640625 43.89453125 C30.73194974 42.53384305 30.64730433 41.17316657 30.5625 39.8125 C30.52318359 39.13896484 30.48386719 38.46542969 30.44335938 37.77148438 C30.21072435 34.10300898 29.82792989 30.58305794 29 27 C28.401875 27.226875 27.80375 27.45375 27.1875 27.6875 C25 28 25 28 23.25 26.8125 C22 25 22 25 22 21 C21.01 21 20.02 21 19 21 C19 20.34 19 19.68 19 19 C17.88625 18.731875 16.7725 18.46375 15.625 18.1875 C12 17 12 17 10 14 C9.67 15.65 9.34 17.3 9 19 C7.68 19.33 6.36 19.66 5 20 C4.505 22.475 4.505 22.475 4 25 C3.67 25 3.34 25 3 25 C2.731875 24.113125 2.46375 23.22625 2.1875 22.3125 C0.19156584 16.54134322 0.19156584 16.54134322 -4.3125 12.75 C-7.15778391 11.95596728 -10.08619027 11.48563496 -13 11 C-13 17.6 -13 24.2 -13 31 C-19.6 31 -26.2 31 -33 31 C-33 24.4 -33 17.8 -33 11 C-41.2389779 12.2918977 -41.2389779 12.2918977 -46 17 C-47 18 -48 19 -49 20 C-50.35439668 17.29120665 -50.06501451 14.99066732 -50 12 C-49.37351563 11.89042969 -48.74703125 11.78085937 -48.1015625 11.66796875 C-47.28429688 11.50941406 -46.46703125 11.35085937 -45.625 11.1875 C-44.81289063 11.03667969 -44.00078125 10.88585938 -43.1640625 10.73046875 C-40.64179359 10.12455058 -40.64179359 10.12455058 -39 7 C-38.34 7 -37.68 7 -37 7 C-35.37485532 5.54166642 -35.37485532 5.54166642 -34 4 C-33.01 4.33 -32.02 4.66 -31 5 C-29.68 5 -28.36 5 -27 5 C-27 5.99 -27 6.98 -27 8 C-21.49633208 8.32374517 -17.56327794 8.53286034 -13 5 C-12.505 5.99 -12.505 5.99 -12 7 C-8.54956883 8.15014372 -5.64717645 9 -2 9 C-1.855625 7.88625 -1.71125 6.7725 -1.5625 5.625 C-1 2 -1 2 0 0 Z " fill="#33C65D" transform="translate(98,36)"/>
<path d="M0 0 C6.6 0 13.2 0 20 0 C20 6.6 20 13.2 20 20 C13.4 20 6.8 20 0 20 C0 13.4 0 6.8 0 0 Z " fill="#424141" transform="translate(65,47)"/>
<path d="M0 0 C4.85066479 3.29971814 7.77552491 7.46437484 10.5625 12.5625 C9.5725 12.5625 8.5825 12.5625 7.5625 12.5625 C7.5625 11.9025 7.5625 11.2425 7.5625 10.5625 C6.77875 10.43875 5.995 10.315 5.1875 10.1875 C2.5625 9.5625 2.5625 9.5625 0.5625 7.5625 C0.4375 4.9375 0.4375 4.9375 0.5625 2.5625 C-0.489375 2.418125 -1.54125 2.27375 -2.625 2.125 C-6.4375 1.5625 -6.4375 1.5625 -9.125 0.9375 C-11.62490295 0.53211033 -13.03522963 0.86506667 -15.4375 1.5625 C-16.7575 1.5625 -18.0775 1.5625 -19.4375 1.5625 C-23.1987037 2.7266821 -24.18862431 3.18918646 -26.4375 6.5625 C-25.7775 6.8925 -25.1175 7.2225 -24.4375 7.5625 C-26.25 9.5625 -26.25 9.5625 -28.4375 11.5625 C-29.4275 11.5625 -30.4175 11.5625 -31.4375 11.5625 C-31.4375 13.2125 -31.4375 14.8625 -31.4375 16.5625 C-32.015 16.81 -32.5925 17.0575 -33.1875 17.3125 C-35.7709875 18.74777083 -37.41535783 20.41397394 -39.4375 22.5625 C-41.49019278 24.61519278 -43.54273599 26.66472925 -45.625 28.6875 C-47.50214321 30.44169869 -47.50214321 30.44169869 -48.4375 32.5625 C-49.22125 32.81 -50.005 33.0575 -50.8125 33.3125 C-53.72868621 34.36387713 -53.72868621 34.36387713 -54.875 37.5625 C-55.390625 38.5525 -55.90625 39.5425 -56.4375 40.5625 C-57.4275 40.871875 -58.4175 41.18125 -59.4375 41.5 C-62.46405303 42.2239799 -62.46405303 42.2239799 -63.4921875 44.23046875 C-64.223563 45.97532172 -64.83921729 47.76765187 -65.4375 49.5625 C-64.7775 49.8925 -64.1175 50.2225 -63.4375 50.5625 C-64.0975 51.5525 -64.7575 52.5425 -65.4375 53.5625 C-65.89144552 55.84162938 -65.89144552 55.84162938 -66.0625 58.25 C-66.13726562 59.05824219 -66.21203125 59.86648437 -66.2890625 60.69921875 C-66.33804688 61.31410156 -66.38703125 61.92898437 -66.4375 62.5625 C-69.5738924 57.85791139 -68.98382514 53.06777637 -68.4375 47.5625 C-66.61452307 40.70902976 -61.85776276 36.78038053 -56.4375 32.5625 C-55.6640625 31.95148437 -54.890625 31.34046875 -54.09375 30.7109375 C-52.60623516 29.54571754 -51.11333368 28.38731592 -49.61328125 27.23828125 C-48.89527344 26.68527344 -48.17726563 26.13226563 -47.4375 25.5625 C-46.61378906 24.95277344 -45.79007813 24.34304687 -44.94140625 23.71484375 C-42.15010347 21.31545556 -40.20681704 18.80060967 -38.0625 15.8125 C-28.48635791 2.83326609 -17.47131874 -9.460337 0 0 Z " fill="#39BE5F" transform="translate(87.4375,21.4375)"/>
<path d="M0 0 C0.99 0 1.98 0 3 0 C3.22174933 1.45635371 3.42698698 2.91522956 3.625 4.375 C3.74101563 5.18710938 3.85703125 5.99921875 3.9765625 6.8359375 C3.98429687 7.55007812 3.99203125 8.26421875 4 9 C3.34 9.66 2.68 10.32 2 11 C3.03712176 13.08261145 3.03712176 13.08261145 5 15 C8.60465748 15.81314911 8.60465748 15.81314911 12 16 C11.690625 17.175625 11.690625 17.175625 11.375 18.375 C11.25125 19.24125 11.1275 20.1075 11 21 C14.91096591 24.91096591 22.04910776 24.04491139 27.375 24.125 C30.16628749 24.02874871 32.376631 23.87445633 35 23 C35.33 20.36 35.66 17.72 36 15 C36.66 15 37.32 15 38 15 C38 14.34 38 13.68 38 13 C37.34 12.67 36.68 12.34 36 12 C36.99 10.68 37.98 9.36 39 8 C40.32 8.33 41.64 8.66 43 9 C43.66 6.03 44.32 3.06 45 0 C46.98 0 48.96 0 51 0 C51.69140625 2.265625 51.69140625 2.265625 52 5 C50.77734375 6.921875 50.77734375 6.921875 48.9375 8.75 C46.2180379 11.58746637 44.1228567 14.30521302 42.125 17.6875 C38.91949653 22.53771206 35.59876596 25.28858683 30 27 C22.10538591 28.20035068 15.08267297 27.85909264 8.390625 23.25 C2.47762471 17.68482325 -2.6245474 10.37463014 -6 3 C-5.38125 3.33 -4.7625 3.66 -4.125 4 C-2.08981656 5.14193235 -2.08981656 5.14193235 0 5 C-0.2784375 4.0409375 -0.2784375 4.0409375 -0.5625 3.0625 C-0.706875 2.381875 -0.85125 1.70125 -1 1 C-0.67 0.67 -0.34 0.34 0 0 Z " fill="#C0DD4B" transform="translate(52,104)"/>
<path d="M0 0 C0.33 0 0.66 0 1 0 C1 8.58 1 17.16 1 26 C0.67 26 0.34 26 0 26 C-0.98248524 21.9472484 -1.08159574 18.16138263 -1 14 C-3.64 14.33 -6.28 14.66 -9 15 C-9.99 17.475 -9.99 17.475 -11 20 C-11.99 19.67 -12.98 19.34 -14 19 C-14.33 19.99 -14.66 20.98 -15 22 C-15.99 22.33 -16.98 22.66 -18 23 C-18.66 23.99 -19.32 24.98 -20 26 C-20.66 26 -21.32 26 -22 26 C-22.1546875 26.9590625 -22.1546875 26.9590625 -22.3125 27.9375 C-22.539375 28.618125 -22.76625 29.29875 -23 30 C-23.99 30.33 -24.98 30.66 -26 31 C-26.495 32.155 -26.99 33.31 -27.5 34.5 C-27.995 35.655 -28.49 36.81 -29 38 C-30.485 38.495 -30.485 38.495 -32 39 C-33.37195574 40.29355827 -34.71182656 41.62298702 -36 43 C-36.495 41.515 -36.495 41.515 -37 40 C-30.52908186 28.02366579 -18.15757118 15.66010434 -5.8203125 10 C-3.19346675 8.55692594 -2.92728022 6.78184067 -2 4 C-1.34786461 2.65949948 -0.68620031 1.32338632 0 0 Z " fill="#4E7622" transform="translate(130,82)"/>
<path d="M0 0 C0.33 0.99 0.66 1.98 1 3 C2.9914056 3.38133299 4.99279077 3.71325582 7 4 C7.33 3.67 7.66 3.34 8 3 C10.33297433 2.95907063 12.66705225 2.95758277 15 3 C15 2.01 15 1.02 15 0 C16.65 0 18.3 0 20 0 C20 3.63 20 7.26 20 11 C13.4 11 6.8 11 0 11 C0 7.37 0 3.74 0 0 Z " fill="#1C1C1C" transform="translate(65,56)"/>
<path d="M0 0 C1.98 0 3.96 0 6 0 C6.69140625 2.265625 6.69140625 2.265625 7 5 C5.77734375 6.921875 5.77734375 6.921875 3.9375 8.75 C0.53153456 12.31912546 -2.07335632 16.01058072 -4.640625 20.21484375 C-6 22 -6 22 -9 23 C-9 20.36 -9 17.72 -9 15 C-8.34 15 -7.68 15 -7 15 C-7 14.34 -7 13.68 -7 13 C-7.66 12.67 -8.32 12.34 -9 12 C-8.01 10.68 -7.02 9.36 -6 8 C-4.68 8.33 -3.36 8.66 -2 9 C-1.34 6.03 -0.68 3.06 0 0 Z " fill="#AADF40" transform="translate(97,104)"/>
<path d="M0 0 C5.48182662 4.22557469 9.17369414 8.79689919 13.15625 14.44140625 C16.73263407 19.40439686 20.20868164 22.89406605 26 25 C29.99351449 25.52667349 33.97739927 25.81123718 38 26 C38 26.33 38 26.66 38 27 C36.10688117 27.25060425 34.21022961 27.47460633 32.3125 27.6875 C31.25675781 27.81511719 30.20101562 27.94273437 29.11328125 28.07421875 C25.49988665 27.9880776 23.9565984 26.97614567 21 25 C20.113125 25 19.22625 25 18.3125 25 C17.549375 25 16.78625 25 16 25 C15.34 24.01 14.68 23.02 14 22 C12.68 22 11.36 22 10 22 C9.34 19.69 8.68 17.38 8 15 C7.67 15 7.34 15 7 15 C7 12.69 7 10.38 7 8 C6.34 8 5.68 8 5 8 C5 7.34 5 6.68 5 6 C4.01 6.33 3.02 6.66 2 7 C0.4375 5.75 0.4375 5.75 -1 4 C-0.58984375 1.890625 -0.58984375 1.890625 0 0 Z " fill="#314F13" transform="translate(42,105)"/>
<path d="M0 0 C0.886875 0.78375 1.77375 1.5675 2.6875 2.375 C6.73006911 5.86367927 10.98492239 9.06721724 15.29174805 12.22021484 C20.49885928 16.1273114 25.23256068 20.51607935 27 27 C27.1953125 30.33203125 27.1953125 30.33203125 27.125 33.8125 C27.10695312 34.97394531 27.08890625 36.13539062 27.0703125 37.33203125 C27.04710937 38.21246094 27.02390625 39.09289062 27 40 C26.01 40.495 26.01 40.495 25 41 C24.93941406 39.97519531 24.87882812 38.95039062 24.81640625 37.89453125 C24.73194974 36.53384305 24.64730433 35.17316657 24.5625 33.8125 C24.52318359 33.13896484 24.48386719 32.46542969 24.44335938 31.77148438 C24.21072435 28.10300898 23.82792989 24.58305794 23 21 C22.1028125 21.3403125 22.1028125 21.3403125 21.1875 21.6875 C19 22 19 22 17.25 20.8125 C16 19 16 19 16 15 C15.01 15 14.02 15 13 15 C13 14.34 13 13.68 13 13 C11.906875 12.773125 10.81375 12.54625 9.6875 12.3125 C5.44455131 10.80229792 4.874932 9.9373572 3 6 C2.443125 5.278125 1.88625 4.55625 1.3125 3.8125 C0 2 0 2 0 0 Z " fill="#3DB85C" transform="translate(104,42)"/>
<path d="M0 0 C0 0.66 0 1.32 0 2 C-0.99 2.33 -1.98 2.66 -3 3 C-3.99 4.485 -3.99 4.485 -5 6 C-5.66 6 -6.32 6 -7 6 C-7.1546875 6.9590625 -7.1546875 6.9590625 -7.3125 7.9375 C-7.539375 8.618125 -7.76625 9.29875 -8 10 C-8.99 10.33 -9.98 10.66 -11 11 C-11.495 12.155 -11.99 13.31 -12.5 14.5 C-12.995 15.655 -13.49 16.81 -14 18 C-14.99 18.33 -15.98 18.66 -17 19 C-18.37195574 20.29355827 -19.71182656 21.62298702 -21 23 C-21.33 22.01 -21.66 21.02 -22 20 C-17.64146203 12.31357549 -9.72421512 0 0 0 Z " fill="#3A6A1B" transform="translate(115,102)"/>
<path d="M0 0 C1.74627478 2.61941217 2.38722388 4.03824877 3 7 C3.66 7 4.32 7 5 7 C5 7.99 5 8.98 5 10 C5.598125 10.268125 6.19625 10.53625 6.8125 10.8125 C8.97224808 11.98493467 10.35790256 13.19369282 12 15 C9.03824877 14.38722388 7.61941217 13.74627478 5 12 C4.67 12.99 4.34 13.98 4 15 C3.01 15.495 3.01 15.495 2 16 C2.01160156 17.07378906 2.02320313 18.14757812 2.03515625 19.25390625 C2.04454315 20.69010241 2.05364238 22.12630048 2.0625 23.5625 C2.07087891 24.26697266 2.07925781 24.97144531 2.08789062 25.69726562 C2.10882603 30.24024798 1.74800682 34.51784892 1 39 C0.67 39 0.34 39 0 39 C0 26.13 0 13.26 0 0 Z " fill="#487327" transform="translate(19,81)"/>
<path d="M0 0 C0.66 0 1.32 0 2 0 C2 0.66 2 1.32 2 2 C2.99 2 3.98 2 5 2 C7.1875 3.875 7.1875 3.875 9 6 C9 6.66 9 7.32 9 8 C10.45817797 8.16802051 11.9165484 8.33437143 13.375 8.5 C14.18710937 8.5928125 14.99921875 8.685625 15.8359375 8.78125 C17.96912825 9.03352351 17.96912825 9.03352351 20 9 C19.34 10.65 18.68 12.3 18 14 C18.66 14 19.32 14 20 14 C20 14.99 20 15.98 20 17 C21.65 17.33 23.3 17.66 25 18 C24.01 18.99 23.02 19.98 22 21 C21.62230469 20.5875 21.24460937 20.175 20.85546875 19.75 C14.93985193 13.54345121 8.11332533 8.74221689 1 4 C0.3125 1.875 0.3125 1.875 0 0 Z " fill="#69C94D" transform="translate(23,87)"/>
<path d="M0 0 C6.6 0 13.2 0 20 0 C19.67 1.65 19.34 3.3 19 5 C18.01257813 4.91621094 17.02515625 4.83242188 16.0078125 4.74609375 C14.72648437 4.64425781 13.44515625 4.54242188 12.125 4.4375 C10.84882812 4.33308594 9.57265625 4.22867188 8.2578125 4.12109375 C5.11356058 3.74316633 5.11356058 3.74316633 3 5 C2.34 4.67 1.68 4.34 1 4 C0.67 2.68 0.34 1.36 0 0 Z " fill="#4C6C55" transform="translate(65,47)"/>
<path d="M0 0 C-1.5438607 3.83333593 -3.92456277 5.98308208 -7 8.6875 C-7.886875 9.47511719 -8.77375 10.26273438 -9.6875 11.07421875 C-12 13 -12 13 -14 14 C-13.91621094 13.37351562 -13.83242187 12.74703125 -13.74609375 12.1015625 C-13.64425781 11.28429687 -13.54242188 10.46703125 -13.4375 9.625 C-13.33308594 8.81289062 -13.22867188 8.00078125 -13.12109375 7.1640625 C-12.81762672 4.95100814 -12.81762672 4.95100814 -14 3 C-12.0424015 2.49713066 -10.08389623 1.9977901 -8.125 1.5 C-7.03445312 1.2215625 -5.94390625 0.943125 -4.8203125 0.65625 C-2 0 -2 0 0 0 Z " fill="#72D548" transform="translate(118,94)"/>
<path d="M0 0 C7.99887654 -0.6770209 14.06683522 -0.53569284 20.83203125 4.06640625 C24.35625174 7.20962993 26.74711667 10.87887195 29 15 C28.01 15 27.02 15 26 15 C26 14.34 26 13.68 26 13 C25.21625 12.87625 24.4325 12.7525 23.625 12.625 C21 12 21 12 19 10 C18.875 7.375 18.875 7.375 19 5 C16.69 4.67 14.38 4.34 12 4 C11.67 3.01 11.34 2.02 11 1 C7.37 1 3.74 1 0 1 C0 0.67 0 0.34 0 0 Z " fill="#3CB961" transform="translate(69,19)"/>
<path d="M0 0 C1.32 0.66 2.64 1.32 4 2 C3.51789063 2.32613281 3.03578125 2.65226562 2.5390625 2.98828125 C1.90742187 3.42527344 1.27578125 3.86226563 0.625 4.3125 C-0.00148438 4.74175781 -0.62796875 5.17101562 -1.2734375 5.61328125 C-3.26378845 7.06920339 -3.26378845 7.06920339 -5 10 C-5.99 10 -6.98 10 -8 10 C-8 10.66 -8 11.32 -8 12 C-8.66 12 -9.32 12 -10 12 C-10 11.34 -10 10.68 -10 10 C-13.63 9.67 -17.26 9.34 -21 9 C-21 8.67 -21 8.34 -21 8 C-19.741875 7.95875 -18.48375 7.9175 -17.1875 7.875 C-11.19056671 7.24575104 -4.3254581 4.3254581 0 0 Z " fill="#294516" transform="translate(92,124)"/>
<path d="M0 0 C0.99 0 1.98 0 3 0 C3.22174933 1.45635371 3.42698698 2.91522956 3.625 4.375 C3.74101563 5.18710938 3.85703125 5.99921875 3.9765625 6.8359375 C3.98429687 7.55007812 3.99203125 8.26421875 4 9 C3.34 9.66 2.68 10.32 2 11 C2.99 12.65 3.98 14.3 5 16 C4.34 16.33 3.68 16.66 3 17 C1.87162591 15.41906946 0.74743482 13.83515284 -0.375 12.25 C-1.00148438 11.36828125 -1.62796875 10.4865625 -2.2734375 9.578125 C-3.71480941 7.42585021 -4.91498093 5.34539477 -6 3 C-5.38125 3.33 -4.7625 3.66 -4.125 4 C-2.08981656 5.14193235 -2.08981656 5.14193235 0 5 C-0.2784375 4.0409375 -0.2784375 4.0409375 -0.5625 3.0625 C-0.706875 2.381875 -0.85125 1.70125 -1 1 C-0.67 0.67 -0.34 0.34 0 0 Z " fill="#9CD74A" transform="translate(52,104)"/>
<path d="M0 0 C1.32 0 2.64 0 4 0 C3.67 14.52 3.34 29.04 3 44 C2.67 44 2.34 44 2 44 C1.97494385 42.8447583 1.9498877 41.6895166 1.92407227 40.49926758 C1.82973055 36.20342371 1.72957563 31.90773146 1.62768555 27.61206055 C1.58443779 25.75467481 1.54275572 23.89725192 1.50268555 22.03979492 C1.4447363 19.36625992 1.38111348 16.69291019 1.31640625 14.01953125 C1.29969376 13.19226028 1.28298126 12.36498932 1.26576233 11.51264954 C1.1647704 7.56096105 0.95704119 3.85881731 0 0 Z " fill="#1E3916" transform="translate(129,64)"/>
<path d="M0 0 C6.6 0 13.2 0 20 0 C20 0.99 20 1.98 20 3 C13.4 3 6.8 3 0 3 C0 2.01 0 1.02 0 0 Z " fill="#090909" transform="translate(65,64)"/>
<path d="M0 0 C1.98 0 3.96 0 6 0 C6.33 1.65 6.66 3.3 7 5 C4.44008376 7.01136276 1.95409701 8.62845496 -1 10 C-1.125 3.375 -1.125 3.375 0 0 Z " fill="#89D83E" transform="translate(97,104)"/>
<path d="M0 0 C3 1 3 1 4.75 3.75 C6.06883276 7.17896517 6.10867421 8.57318882 5 12 C3.35 12.33 1.7 12.66 0 13 C-1.125 7.375 -1.125 7.375 0 4 C0 2.68 0 1.36 0 0 Z " fill="#2ACB56" transform="translate(102,43)"/>
<path d="M0 0 C6.28534266 4.84495164 10.52946118 10.4741745 15 17 C14.34 17.66 13.68 18.32 13 19 C11.9944239 17.54550599 10.99569565 16.08627557 10 14.625 C9.443125 13.81289062 8.88625 13.00078125 8.3125 12.1640625 C7 10 7 10 7 8 C6.34 8 5.68 8 5 8 C5 7.34 5 6.68 5 6 C4.01 6.33 3.02 6.66 2 7 C0.4375 5.75 0.4375 5.75 -1 4 C-0.58984375 1.890625 -0.58984375 1.890625 0 0 Z " fill="#376517" transform="translate(42,105)"/>
<path d="M0 0 C0.53625 0.2475 1.0725 0.495 1.625 0.75 C0.696875 1.0903125 0.696875 1.0903125 -0.25 1.4375 C-2.98910209 3.12929835 -3.42524472 4.74244161 -4.375 7.75 C-5.365 7.42 -6.355 7.09 -7.375 6.75 C-7.705 7.41 -8.035 8.07 -8.375 8.75 C-10.025 8.75 -11.675 8.75 -13.375 8.75 C-4.64893617 -0.4893617 -4.64893617 -0.4893617 0 0 Z " fill="#427618" transform="translate(123.375,94.25)"/>
<path d="M0 0 C0.99 0.33 1.98 0.66 3 1 C2.67 2.65 2.34 4.3 2 6 C1.01 6.33 0.02 6.66 -1 7 C-2.37195574 8.29355827 -3.71182656 9.62298702 -5 11 C-5.33 10.01 -5.66 9.02 -6 8 C-4.78515625 5.95703125 -4.78515625 5.95703125 -3.0625 3.8125 C-2.49660156 3.09707031 -1.93070312 2.38164063 -1.34765625 1.64453125 C-0.90292969 1.10183594 -0.45820312 0.55914062 0 0 Z " fill="#315B1B" transform="translate(99,114)"/>
<path d="M0 0 C-1.1446875 0.5878125 -1.1446875 0.5878125 -2.3125 1.1875 C-5.24716071 3.16668978 -6.40126898 4.8866817 -8 8 C-10 6 -10 6 -10.125 2.875 C-10.08375 1.92625 -10.0425 0.9775 -10 0 C-6.33694766 -0.74926071 -3.57644848 -1.2380014 0 0 Z " fill="#44C46D" transform="translate(58,48)"/>
<path d="M0 0 C8.40410547 -0.57650114 14.38940013 -0.59204823 21 5 C19 6 19 6 15.4375 5.25 C14.303125 4.8375 13.16875 4.425 12 4 C11.67 3.01 11.34 2.02 11 1 C7.37 1 3.74 1 0 1 C0 0.67 0 0.34 0 0 Z " fill="#39B561" transform="translate(69,19)"/>
<path d="M0 0 C0.33 0.99 0.66 1.98 1 3 C0.54625 3.825 0.0925 4.65 -0.375 5.5 C-2.58444707 10.25880908 -2.73221643 14.81053909 -3 20 C-3.33 20 -3.66 20 -4 20 C-5.9333722 7.27037119 -5.9333722 7.27037119 -2.5625 2.6875 C-1.2940625 1.3571875 -1.2940625 1.3571875 0 0 Z " fill="#133E1C" transform="translate(22,60)"/>
<path d="M0 0 C0 3 0 3 -1.875 5.1875 C-4 7 -4 7 -6 7 C-6 6.34 -6 5.68 -6 5 C-7.32 5.33 -8.64 5.66 -10 6 C-10.33 5.01 -10.66 4.02 -11 3 C-9.35 2.34 -7.7 1.68 -6 1 C-6 1.99 -6 2.98 -6 4 C-2.81765895 2.24545615 -2.81765895 2.24545615 0 0 Z " fill="#64CE4B" transform="translate(124,89)"/>
<path d="M0 0 C3.94139078 1.66751148 6.7892812 4.22710649 10 7 C7 7 7 7 5 6 C2.90178785 6.39938767 2.90178785 6.39938767 1 7 C0 2.25 0 2.25 0 0 Z " fill="#3F731C" transform="translate(32,97)"/>
<path d="M0 0 C0.66 0.33 1.32 0.66 2 1 C1.4375 3.375 1.4375 3.375 0 6 C-3.625 7.3125 -3.625 7.3125 -7 8 C-6.875 6.25 -6.875 6.25 -6 4 C-2.9375 1.75 -2.9375 1.75 0 0 Z " fill="#27CA54" transform="translate(31,56)"/>
<path d="M0 0 C0.33 0.99 0.66 1.98 1 3 C0.67 3.33 0.34 3.66 0 4 C-2.02408755 3.90997602 -4.04544287 3.75358962 -6.0625 3.5625 C-7.71958984 3.40974609 -7.71958984 3.40974609 -9.41015625 3.25390625 C-10.69212891 3.12822266 -10.69212891 3.12822266 -12 3 C-11.67 2.34 -11.34 1.68 -11 1 C-8.49609375 0.5859375 -8.49609375 0.5859375 -5.4375 0.375 C-4.42558594 0.30023438 -3.41367188 0.22546875 -2.37109375 0.1484375 C-1.58863281 0.09945312 -0.80617188 0.05046875 0 0 Z " fill="#545654" transform="translate(84,48)"/>
<path d="M0 0 C0.99 0 1.98 0 3 0 C3.33 2.97 3.66 5.94 4 9 C2.35 8.67 0.7 8.34 -1 8 C-0.7525 7.13375 -0.7525 7.13375 -0.5 6.25 C0.14462031 3.73335631 0.14462031 3.73335631 0 0 Z " fill="#92DC3F" transform="translate(52,104)"/>
<path d="M0 0 C0.33 0.99 0.66 1.98 1 3 C1.99 3 2.98 3 4 3 C4 3.99 4 4.98 4 6 C4.66 6.33 5.32 6.66 6 7 C4.68 7.33 3.36 7.66 2 8 C2 7.34 2 6.68 2 6 C1.01 6 0.02 6 -1 6 C-1.33 4.35 -1.66 2.7 -2 1 C-1.34 0.67 -0.68 0.34 0 0 Z " fill="#323232" transform="translate(67,53)"/>
<path d="M0 0 C4.95 0 9.9 0 15 0 C15 0.66 15 1.32 15 2 C14.34 2 13.68 2 13 2 C13 2.66 13 3.32 13 4 C12.34 4 11.68 4 11 4 C11 3.34 11 2.68 11 2 C7.37 1.67 3.74 1.34 0 1 C0 0.67 0 0.34 0 0 Z " fill="#203919" transform="translate(71,132)"/>
<path d="M0 0 C1.67542976 0.28604898 3.34385343 0.61781233 5 1 C4.34 2.32 3.68 3.64 3 5 C2.34 5 1.68 5 1 5 C0.67 5.66 0.34 6.32 0 7 C-0.66 7 -1.32 7 -2 7 C-2 6.01 -2 5.02 -2 4 C-1.34 4 -0.68 4 0 4 C-0.33 3.01 -0.66 2.02 -1 1 C-0.67 0.67 -0.34 0.34 0 0 Z " fill="#97DA41" transform="translate(98,107)"/>
<path d="M0 0 C1.98 0.66 3.96 1.32 6 2 C6 2.99 6 3.98 6 5 C7.65 5.33 9.3 5.66 11 6 C10.01 6.99 9.02 7.98 8 9 C6.66368764 7.6905332 5.33102075 6.37734515 4 5.0625 C3.2575 4.33160156 2.515 3.60070312 1.75 2.84765625 C0 1 0 1 0 0 Z " fill="#80CF4A" transform="translate(37,99)"/>
<path d="M0 0 C0.66 0.33 1.32 0.66 2 1 C-0.64 3.64 -3.28 6.28 -6 9 C-6.33 7.68 -6.66 6.36 -7 5 C-6.360625 4.896875 -5.72125 4.79375 -5.0625 4.6875 C-4.381875 4.460625 -3.70125 4.23375 -3 4 C-2.67 3.01 -2.34 2.02 -2 1 C-1.34 0.67 -0.68 0.34 0 0 Z " fill="#80CD4A" transform="translate(111,99)"/>
<path d="M0 0 C3.39417765 3.12621626 5.6062718 5.56541027 7 10 C6.34 10 5.68 10 5 10 C5 9.34 5 8.68 5 8 C4.01 7.67 3.02 7.34 2 7 C0 5 0 5 -0.125 2.375 C-0.08375 1.59125 -0.0425 0.8075 0 0 Z " fill="#2E5324" transform="translate(49,115)"/>
<path d="M0 0 C2.475 0.495 2.475 0.495 5 1 C5 1.66 5 2.32 5 3 C5.99 3 6.98 3 8 3 C9.0625 4.8125 9.0625 4.8125 10 7 C9.67 7.99 9.34 8.98 9 10 C8.60167969 9.52949219 8.20335938 9.05898438 7.79296875 8.57421875 C7.26316406 7.95160156 6.73335938 7.32898437 6.1875 6.6875 C5.66542969 6.07261719 5.14335938 5.45773438 4.60546875 4.82421875 C3.12827531 3.14575321 1.59960869 1.56117966 0 0 Z " fill="#133D1F" transform="translate(119,54)"/>
<path d="M0 0 C0.66 0.33 1.32 0.66 2 1 C2 2.65 2 4.3 2 6 C0.125 7.0625 0.125 7.0625 -2 8 C-2.66 7.67 -3.32 7.34 -4 7 C-2.68 4.69 -1.36 2.38 0 0 Z " fill="#29CA5A" transform="translate(54,32)"/>
<path d="M0 0 C1.0536628 3.16098841 1.21514551 4.00887259 0 7 C-2.0625 8.75 -2.0625 8.75 -4 10 C-3.67 7.03 -3.34 4.06 -3 1 C-2.01 0.67 -1.02 0.34 0 0 Z " fill="#2C2C2E" transform="translate(52,25)"/>
<path d="M0 0 C2.64 0 5.28 0 8 0 C7.67 1.32 7.34 2.64 7 4 C3.89448334 4 2.64738916 3.4606285 0 2 C0 1.34 0 0.68 0 0 Z " fill="#B8E335" transform="translate(56,120)"/>
<path d="M0 0 C7.57142857 4.14285714 7.57142857 4.14285714 10 7 C9.67 7.66 9.34 8.32 9 9 C8.4225 8.360625 7.845 7.72125 7.25 7.0625 C5.01937599 5.01776132 3.92563609 4.41794801 1 4 C0.67 2.68 0.34 1.36 0 0 Z " fill="#3EBF6B" transform="translate(116,53)"/>
<path d="M0 0 C2.0625 1.75 2.0625 1.75 4 4 C3.75 6.25 3.75 6.25 3 8 C2.01 8 1.02 8 0 8 C0 5.36 0 2.72 0 0 Z " fill="#507218" transform="translate(20,88)"/>
<path d="M0 0 C2 2 2 2 2 4 C2.33 4.99 2.66 5.98 3 7 C1.68 6.67 0.36 6.34 -1 6 C-1.33 4.35 -1.66 2.7 -2 1 C-1.34 0.67 -0.68 0.34 0 0 Z " fill="#29C054" transform="translate(90,24)"/>
<path d="M0 0 C1.98 1.65 3.96 3.3 6 5 C5.01 5.66 4.02 6.32 3 7 C1.5 5.75 1.5 5.75 0 4 C0 2.68 0 1.36 0 0 Z " fill="#26CB57" transform="translate(120,57)"/>
<path d="M0 0 C1.65 0 3.3 0 5 0 C4.1875 1.9375 4.1875 1.9375 3 4 C2.01 4.33 1.02 4.66 0 5 C-0.66 4.67 -1.32 4.34 -2 4 C-1.34 2.68 -0.68 1.36 0 0 Z " fill="#2ACC57" transform="translate(58,28)"/>
<path d="M0 0 C1.32 0.66 2.64 1.32 4 2 C2.625 4 2.625 4 1 6 C0.34 6 -0.32 6 -1 6 C-1.042721 4.33388095 -1.04063832 2.66617115 -1 1 C-0.67 0.67 -0.34 0.34 0 0 Z " fill="#AFD33E" transform="translate(89,121)"/>
<path d="M0 0 C1.4540625 0.0309375 1.4540625 0.0309375 2.9375 0.0625 C2.2775 1.7125 1.6175 3.3625 0.9375 5.0625 C-0.7125 3.7425 -2.3625 2.4225 -4.0625 1.0625 C-3.0625 0.0625 -3.0625 0.0625 0 0 Z " fill="#6FD643" transform="translate(40.0625,95.9375)"/>
<path d="M0 0 C1.65 0 3.3 0 5 0 C4.67 1.32 4.34 2.64 4 4 C2.68 3.67 1.36 3.34 0 3 C0 2.01 0 1.02 0 0 Z " fill="#2D2F2C" transform="translate(80,56)"/>
<path d="M0 0 C1.32 0.33 2.64 0.66 4 1 C3.34 3.31 2.68 5.62 2 8 C0 6 0 6 -0.125 2.875 C-0.08375 1.92625 -0.0425 0.9775 0 0 Z " fill="#29C957" transform="translate(48,48)"/>
</svg>
