<?xml version="1.0" encoding="UTF-8"?>
<svg version="1.1" xmlns="http://www.w3.org/2000/svg" width="400" height="400">
<path d="M0 0 C132 0 264 0 400 0 C400 132 400 264 400 400 C268 400 136 400 0 400 C0 268 0 136 0 0 Z " fill="#010101" transform="translate(0,0)"/>
<path d="M0 0 C18.05477079 16.77328075 28.88813273 40.71051027 30.09765625 65.30078125 C30.50137035 79.38353148 28.25146035 92.24955865 23.5 105.5 C23.22857178 106.26054687 22.95714355 107.02109375 22.67749023 107.8046875 C20.39066061 113.83485111 17.25884131 119.18625374 13.8125 124.625 C17.68103486 122.48328809 21.52924141 120.30730656 25.375 118.125 C26.46103516 117.52429688 27.54707031 116.92359375 28.66601562 116.3046875 C39.43744637 110.14958422 45.50896471 104.04210043 48.83984375 91.87109375 C49.44706304 89.33015465 50.05122607 86.78848324 50.65234375 84.24609375 C52.19580582 79.42862122 54.21881785 75.85090934 58.25 72.75 C64.79207415 70.68408185 71.7755734 70.64884502 78.3125 72.75 C82.36636995 75.79040246 86.22539017 79.71938779 87.8125 84.625 C88.10476867 90.37295054 87.55120593 95.92641141 86.8125 101.625 C87.68261719 101.98851562 87.68261719 101.98851562 88.5703125 102.359375 C95.52999713 105.34537831 101.38788464 108.23388892 105.8125 114.625 C107.72972547 120.3766764 107.73350569 126.40494357 105.125 131.9375 C102.48996489 136.54648368 99.00411243 140.94536068 93.8125 142.625 C88.55321358 142.90558228 84.07512907 142.06668805 79.0625 140.625 C66.57852674 137.30410463 56.96874302 137.96751869 45.6328125 144.453125 C43.72989533 145.58626072 41.83168224 146.72732235 39.9375 147.875 C29.98915663 153.79574623 19.93589069 159.48148414 9.78881836 165.05395508 C4.27419658 168.09704216 -1.18849303 171.19428161 -6.57421875 174.4609375 C-7.57565918 175.06736084 -8.57709961 175.67378418 -9.60888672 176.29858398 C-11.48371203 177.4424459 -13.35172891 178.59757227 -15.21142578 179.76586914 C-23.13230525 184.60181478 -23.13230525 184.60181478 -28.1875 183.625 C-31.321791 182.25374769 -34.20727367 180.61387731 -37.1875 178.9375 C-40.50560225 177.48583026 -42.60552961 177.22700329 -46.1875 177.625 C-49.43599977 179.34726496 -49.43599977 179.34726496 -50.1875 182.625 C-49.11145508 183.03226318 -49.11145508 183.03226318 -48.01367188 183.44775391 C-45.19954087 184.61998436 -42.62424362 185.96589652 -39.96875 187.4609375 C-38.96465088 188.02458008 -37.96055176 188.58822266 -36.92602539 189.16894531 C-35.85731201 189.77319336 -34.78859863 190.37744141 -33.6875 191 C-32.57689209 191.62487305 -31.46628418 192.24974609 -30.32202148 192.89355469 C-22.42608549 197.34238219 -14.55570138 201.8352858 -6.69189453 206.34057617 C-0.83204227 209.69448852 5.04238814 213.02092828 10.9375 216.3125 C11.69023193 216.73499023 12.44296387 217.15748047 13.21850586 217.59277344 C21.44287869 222.16685836 30.36423857 223.1783627 39.6015625 220.953125 C40.39304687 220.67984375 41.18453125 220.4065625 42 220.125 C48.21813175 217.98331402 55.05334491 216.89848252 61.2109375 219.7265625 C65.58466256 222.76703308 69.23459055 226.45734657 70.8125 231.625 C71.71477544 237.90333329 71.30548117 243.44643459 68.06640625 248.9765625 C64.05984131 254.24376002 57.89141808 255.8418507 51.8125 257.625 C50.87869039 262.15640653 50.87869039 262.15640653 51.8125 266.625 C52.37135596 273.10772911 51.41378182 278.11283395 47.8125 283.625 C43.32103543 288.01225426 38.79233785 289.72460986 32.5625 289.9375 C27.7007499 289.86541474 23.63889224 288.68939122 19.8125 285.625 C16.06017914 280.94339893 14.78034345 276.50948365 13.4375 270.8125 C9.98893897 257.5475699 4.66911371 251.91564088 -6.96826172 244.96386719 C-10.05259109 243.16702136 -13.14891014 241.3927564 -16.25 239.625 C-18.57713543 238.29090517 -20.90395947 236.95627899 -23.23046875 235.62109375 C-24.10913605 235.11744545 -24.10913605 235.11744545 -25.0055542 234.60362244 C-30.71066406 231.3313532 -36.38737229 228.01138753 -42.0625 224.6875 C-50.73982385 219.61174446 -59.4535608 214.60240941 -68.1875 209.625 C-77.9100792 204.08417173 -87.5988979 198.48896699 -97.25878906 192.83935547 C-111.16267916 184.70997216 -125.10678197 176.64871864 -139.10546875 168.68359375 C-140.86032218 167.6846259 -142.61514524 166.68560474 -144.36993408 165.68652344 C-145.53559233 165.02300425 -146.70140341 164.35975347 -147.86737061 163.69677734 C-154.53246155 159.90459059 -161.16466386 156.06476116 -167.74609375 152.12890625 C-168.67206612 151.57587578 -168.67206612 151.57587578 -169.616745 151.01167297 C-172.57779131 149.2416522 -175.53425566 147.46460053 -178.48413086 145.67602539 C-179.53866455 145.04301514 -180.59319824 144.41000488 -181.6796875 143.7578125 C-182.60120605 143.19980957 -183.52272461 142.64180664 -184.47216797 142.06689453 C-194.06985993 136.97033198 -203.91034957 137.68518319 -214.0625 140.625 C-215.25617188 140.99625 -216.44984375 141.3675 -217.6796875 141.75 C-222.19141058 142.87541868 -226.17758522 143.59058086 -230.48046875 141.5234375 C-235.52360942 137.46812851 -239.09590473 133.8997858 -241.1875 127.625 C-241.92174739 120.73992608 -241.32811216 116.22042184 -237.1875 110.625 C-234.07846247 107.42452018 -231.0689471 106.19188681 -226.9375 104.75 C-224.34673154 103.83691989 -224.34673154 103.83691989 -222.1875 102.625 C-220.6881108 98.83706939 -221.15106665 96.4252556 -222.1875 92.625 C-222.76301806 86.63961219 -221.54511225 82.50786903 -218.1875 77.625 C-213.75767189 73.04826432 -210.3789342 71.45172535 -204.0625 71.3125 C-198.29140074 71.39530827 -193.58426218 71.61557163 -189.1875 75.625 C-185.27482154 80.91553028 -183.78194949 86.949643 -182.25 93.25 C-178.82860537 107.08142531 -169.76768363 112.27345016 -158.13256836 119.31860352 C-155.16073186 121.10436917 -152.17621413 122.86763609 -149.1875 124.625 C-149.43757813 124.12484375 -149.68765625 123.6246875 -149.9453125 123.109375 C-150.35523438 122.28953125 -150.76515625 121.4696875 -151.1875 120.625 C-152.08082031 118.86929688 -152.08082031 118.86929688 -152.9921875 117.078125 C-157.8050034 107.39799974 -160.96508667 98.20971434 -163.1875 87.625 C-163.44901855 86.70267578 -163.44901855 86.70267578 -163.71582031 85.76171875 C-168.73556627 63.02216561 -161.67269993 38.38359868 -149.9375 18.9375 C-135.16399045 -2.99192823 -114.09953692 -18.48361114 -88.25 -24.6875 C-86.89975935 -24.93876659 -85.54541045 -25.16917499 -84.1875 -25.375 C-83.51203125 -25.48457031 -82.8365625 -25.59414063 -82.140625 -25.70703125 C-51.25581217 -29.93396731 -23.16903847 -20.00482988 0 0 Z " fill="#FCFCFC" transform="translate(267.1875,56.375)"/>
<path d="M0 0 C0.33 0 0.66 0 1 0 C1 45.54 1 91.08 1 138 C-44.54 138 -90.08 138 -137 138 C-133.93873606 136.46936803 -131.03151568 135.20388865 -127.84375 134.00390625 C-87.7390018 118.64233258 -54.01681676 94.14168075 -29 59 C-28.54254395 58.360625 -28.08508789 57.72125 -27.61376953 57.0625 C-15.38366301 39.80281274 -5.46907757 20.50217017 0 0 Z " fill="#FDFDFD" transform="translate(399,262)"/>
<path d="M0 0 C45.54 0 91.08 0 138 0 C138 45.21 138 90.42 138 137 C136.30360572 134.45540858 135.39885984 132.60712442 134.40625 129.78125 C127.79884393 111.4429729 119.31175538 94.87517747 108 79 C107.26007813 77.95328125 106.52015625 76.9065625 105.7578125 75.828125 C100.34675754 68.3951456 94.36071273 61.61616304 88 55 C87.50564453 54.48373047 87.01128906 53.96746094 86.50195312 53.43554688 C80.06901831 46.7542362 73.46637682 40.53064949 66 35 C65.42749512 34.56751953 64.85499023 34.13503906 64.26513672 33.68945312 C46.37382567 20.23983647 27.23801085 10.46369355 6.21630859 2.86279297 C4.09043675 2.03520637 2.04043734 1.02021867 0 0 Z " fill="#FDFDFD" transform="translate(262,0)"/>
<path d="M0 0 C1.32032832 2.64065664 2.44070715 5.03036178 3.4453125 7.765625 C7.34840109 18.20670959 11.74812892 28.16872235 17 38 C17.47324707 38.8964624 17.47324707 38.8964624 17.95605469 39.81103516 C41.58884204 84.22353242 83.93049855 119.04155208 131.41796875 135.16015625 C133.59804846 135.82125235 135.7964284 136.42201401 138 137 C138 137.33 138 137.66 138 138 C92.46 138 46.92 138 0 138 C0 92.46 0 46.92 0 0 Z " fill="#FDFDFD" transform="translate(0,262)"/>
<path d="M0 0 C45.21 0 90.42 0 137 0 C133.79220255 2.13853164 130.59778148 3.29012982 127 4.5625 C99.18536501 14.78532698 75.33086994 30.57907789 54 51 C53.49726562 51.47550293 52.99453125 51.95100586 52.4765625 52.44091797 C33.2625788 70.68566836 18.59532526 93.62228592 8.125 117.875 C7.75560303 118.7304541 7.38620605 119.5859082 7.00561523 120.46728516 C4.59463838 126.20855218 2.67373789 132.00363818 1 138 C0.67 138 0.34 138 0 138 C0 92.46 0 46.92 0 0 Z " fill="#FDFDFD" transform="translate(0,0)"/>
<path d="M0 0 C2.76074219 1.16162109 2.76074219 1.16162109 5.546875 2.7734375 C7.06087891 3.6396875 7.06087891 3.6396875 8.60546875 4.5234375 C9.64316406 5.13445312 10.68085938 5.74546875 11.75 6.375 C12.80316406 6.97828125 13.85632813 7.5815625 14.94140625 8.203125 C22.66444244 12.66444244 22.66444244 12.66444244 25 15 C25.55078125 17.35546875 25.55078125 17.35546875 25 20 C22.72901368 21.73286827 20.69058356 22.9899923 18.1875 24.3125 C16.63187668 25.18061684 15.07726001 26.05053903 13.5234375 26.921875 C12.21777832 27.64407227 12.21777832 27.64407227 10.88574219 28.38085938 C5.30557175 31.51179764 -0.18705691 34.79417428 -5.6875 38.0625 C-6.56668091 38.58488754 -6.56668091 38.58488754 -7.46362305 39.11782837 C-10.30687412 40.80843002 -13.14795608 42.50255284 -15.98730469 44.19970703 C-17.81654945 45.29280678 -19.64747524 46.38310863 -21.48144531 47.46826172 C-34.41837617 55.15231711 -39.07994218 61.44233074 -43 76 C-44.64126584 81.9452236 -45.92170483 86.07586283 -51 90 C-56.97677603 93.33320201 -62.54768104 94.21870045 -69.140625 92.4140625 C-74.98421789 89.98294943 -78.54399082 85.78204376 -81 80 C-81.55289825 76.57525159 -81.38008541 73.43682861 -81 70 C-80.91878906 69.13117188 -80.83757812 68.26234375 -80.75390625 67.3671875 C-80.53728555 65.24097202 -80.27350313 63.11964923 -80 61 C-80.6290625 60.86464844 -81.258125 60.72929687 -81.90625 60.58984375 C-88.59432386 58.90775288 -93.53349087 56.36418989 -98 51 C-100.59843246 45.77757673 -100.7701865 40.72023932 -100 35 C-98.08922971 29.94157687 -94.62729136 25.74233037 -90.0546875 22.84765625 C-82.58989194 19.76807329 -74.72639479 22.47005926 -67.34448242 24.55615234 C-56.31857538 27.6418818 -48.93920134 24.68500143 -38.96801758 19.38989258 C-35.9561759 17.67029127 -32.97357014 15.90991645 -30 14.125 C-24 10.5703125 -24 10.5703125 -21.0234375 8.80957031 C-18.93300804 7.55841857 -16.85555649 6.28541894 -14.7890625 4.99511719 C-13.74492187 4.35477539 -12.70078125 3.71443359 -11.625 3.0546875 C-10.68914062 2.46929199 -9.75328125 1.88389648 -8.7890625 1.28076172 C-5.51367458 -0.22332486 -3.56912516 -0.43406706 0 0 Z " fill="#FCFCFC" transform="translate(162,253)"/>
<path d="M0 0 C0.7734375 -0.00515625 1.546875 -0.0103125 2.34375 -0.015625 C4.5 0.25 4.5 0.25 7.5 2.25 C7.59024185 4.77075569 7.53259222 7.11911054 7.375 9.625 C7.13285261 17.50981403 8.71232932 23.2527768 12.5 30.25 C13.20382813 31.57644531 13.20382813 31.57644531 13.921875 32.9296875 C22.30708535 47.76159183 34.8299309 56.76484389 50.98828125 62.06640625 C67.72315351 66.08840076 84.82174348 62.66860762 99.5625 54.16015625 C113.38907664 45.16920415 121.80579439 31.55374141 126.01953125 15.79296875 C126.50950086 13.19971494 126.66079121 10.88238187 126.5 8.25 C126.17 7.92 125.84 7.59 125.5 7.25 C125.25 4.8125 125.25 4.8125 125.5 2.25 C129.20401128 -0.21934085 132.20587865 -0.19928433 136.5 0.25 C139 1.25 139 1.25 140.5 2.25 C140.70086443 5.96599191 140.6519437 7.02208445 138.5 10.25 C138.00839264 12.38408743 137.57904392 14.53280738 137.1875 16.6875 C132.98591999 37.00558843 121.72463923 52.90942784 104.5 64.25 C87.57863042 74.21394997 67.38157645 77.83358196 47.97265625 73.37109375 C28.08124022 67.15117728 12.61649881 54.27532042 2.5 36.25 C-1.50227591 28.27870809 -3.71503159 20.06556707 -5.703125 11.42578125 C-6.17149271 8.40725689 -6.17149271 8.40725689 -7.5 7.25 C-7.75 4.8125 -7.75 4.8125 -7.5 2.25 C-4.377998 0.16866533 -3.56733011 -0.0237822 0 0 Z " fill="#070707" transform="translate(133.5,128.75)"/>
<path d="M0 0 C4.305612 3.05529236 7.44109924 7.12276244 8.7890625 12.26953125 C9.26749748 18.10643796 8.88405952 23.17547058 5.7890625 28.26953125 C2.16138124 32.11235107 -1.56461664 36.04376122 -7.00390625 36.5078125 C-14.01700337 36.66114834 -18.61990075 36.67098571 -24.2109375 32.26953125 C-29.62662293 26.56110607 -30.78343759 21.04242147 -30.66015625 13.3515625 C-29.77041133 7.24713867 -26.40783221 2.94335579 -21.5859375 -0.73046875 C-14.28998349 -3.80244939 -6.96391195 -3.92587068 0 0 Z " fill="#030303" transform="translate(175.2109375,81.73046875)"/>
<path d="M0 0 C4.62463295 2.64398207 7.31777718 6.02690374 10 10.625 C11.34799047 16.01696188 11.35262356 21.25491865 9.6875 26.5625 C6.5943036 30.91230744 2.50544502 34.96602749 -2.3125 37.375 C-10.03684069 38.25049916 -16.2469586 38.13038559 -22.5 33.19921875 C-27.09237739 28.57714927 -28.52169484 24.22157324 -28.75 17.75 C-28.49497907 12.13953963 -27.49640299 8.56345279 -23.4375 4.49609375 C-16.54608201 -1.7745899 -8.91542856 -4.08482563 0 0 Z " fill="#030303" transform="translate(244.3125,80.625)"/>
<path d="M0 0 C2.9375 2.0625 2.9375 2.0625 5 5 C5.50984938 8.63267682 5.40735398 10.96803659 4.0625 14.375 C0.71711133 17.01076077 -2.81021855 17.41090676 -7 17 C-10.11892983 15.0267995 -11.60038493 13.67111758 -12.47265625 10.0234375 C-12.74309954 6.32044482 -12.29617682 4.35900221 -9.9375 1.5 C-6.22693494 -0.39475662 -4.11629392 -0.66154724 0 0 Z " fill="#0E0E0E" transform="translate(341,318)"/>
<path d="M0 0 C2.9375 2.0625 2.9375 2.0625 5 5 C5.50984938 8.63267682 5.40735398 10.96803659 4.0625 14.375 C0.71711133 17.01076077 -2.81021855 17.41090676 -7 17 C-10.11892983 15.0267995 -11.60038493 13.67111758 -12.47265625 10.0234375 C-12.74309954 6.32044482 -12.29617682 4.35900221 -9.9375 1.5 C-6.22693494 -0.39475662 -4.11629392 -0.66154724 0 0 Z M-9 3.5625 C-10.43135511 7.05142809 -9.933966 9.39755972 -9 13 C-6.10538099 15.36139302 -6.10538099 15.36139302 -2.4375 14.8125 C1.25825752 14.35160238 1.25825752 14.35160238 3 11 C3.32162076 7.9124407 3.48724515 5.85984439 1.9375 3.125 C-1.74924351 0.98431022 -5.61917205 0.92122816 -9 3.5625 Z " fill="#D9D9D9" transform="translate(341,318)"/>
<path d="M0 0 C2.31 0 4.62 0 7 0 C7 3 7 6 7 9 C6.34 9 5.68 9 5 9 C4.34 8.01 3.68 7.02 3 6 C2.67 6.99 2.34 7.98 2 9 C1.34 9 0.68 9 0 9 C0 6.03 0 3.06 0 0 Z " fill="#C1C1C1" transform="translate(334,322)"/>
<path d="M0 0 C0 4.16773987 -2.23864238 6.14082862 -5 9 C-6.6396721 10.36639342 -8.30327614 11.70513179 -10 13 C-11.0173873 13.98230498 -12.02596117 14.97469597 -13 16 C-13 13 -13 13 -11.80664062 11.46606445 C-11.26201172 10.937146 -10.71738281 10.40822754 -10.15625 9.86328125 C-9.56972656 9.28642578 -8.98320312 8.70957031 -8.37890625 8.11523438 C-7.75886719 7.52033203 -7.13882812 6.92542969 -6.5 6.3125 C-5.87996094 5.70599609 -5.25992187 5.09949219 -4.62109375 4.47460938 C-3.08735293 2.97626257 -1.54451802 1.48723507 0 0 Z M-18 17 C-17.34 17.33 -16.68 17.66 -16 18 C-18.97 20.475 -18.97 20.475 -22 23 C-22.66 22.67 -23.32 22.34 -24 22 C-22.02 20.35 -20.04 18.7 -18 17 Z " fill="#E4E4E4" transform="translate(354,341)"/>
<path d="M0 0 C6.3782235 -0.36103152 6.3782235 -0.36103152 8.9375 1.125 C10.48138276 3.84949899 10.3267107 5.92891945 10 9 C9.34 9.66 8.68 10.32 8 11 C7.01 10.01 6.02 9.02 5 8 C5.66 7.67 6.32 7.34 7 7 C7 5.35 7 3.7 7 2 C4.69 2 2.38 2 0 2 C0 1.34 0 0.68 0 0 Z " fill="#242424" transform="translate(334,320)"/>
<path d="M0 0 C3.625 0.5 3.625 0.5 6.5625 2.625 C8.93454571 5.93148796 9.08733492 7.5239197 8.625 11.5 C7.965 11.5 7.305 11.5 6.625 11.5 C6.315625 10.365625 6.00625 9.23125 5.6875 8.0625 C4.99575469 4.71224901 4.99575469 4.71224901 3.625 3.5 C1.93891034 3.42794489 0.24999341 3.41613932 -1.4375 3.4375 C-2.35660156 3.44652344 -3.27570313 3.45554687 -4.22265625 3.46484375 C-4.93292969 3.47644531 -5.64320313 3.48804688 -6.375 3.5 C-4.11579325 0.92587353 -3.5878254 0.53152969 0 0 Z " fill="#EBEBEB" transform="translate(337.375,317.5)"/>
<path d="M0 0 C0.99 0.33 1.98 0.66 3 1 C2.0625 2.9375 2.0625 2.9375 0 5 C-2.9858081 5.66174825 -5.94861869 5.87205948 -9 6 C-7 4 -7 4 -3.9375 3 C-0.87849194 2.34247444 -0.87849194 2.34247444 0 0 Z " fill="#D1D1D1" transform="translate(343,329)"/>
<path d="M0 0 C2.6875 0.3125 2.6875 0.3125 5 1 C3.35 2.65 1.7 4.3 0 6 C-0.99 5.01 -1.98 4.02 -3 3 C-1.8125 1.4375 -1.8125 1.4375 0 0 Z " fill="#F2F2F2" transform="translate(67,33)"/>
<path d="M0 0 C0.99 0.66 1.98 1.32 3 2 C2.25 4.4375 2.25 4.4375 1 7 C-1.125 7.8125 -1.125 7.8125 -3 8 C-2.690625 7.236875 -2.38125 6.47375 -2.0625 5.6875 C-1.32106407 3.81210323 -0.63771783 1.91315348 0 0 Z " fill="#171717" transform="translate(287,168)"/>
<path d="M0 0 C0.66 0.33 1.32 0.66 2 1 C1.67 1.99 1.34 2.98 1 4 C-0.65 4.33 -2.3 4.66 -4 5 C-4.33 4.34 -4.66 3.68 -5 3 C-2.625 1.4375 -2.625 1.4375 0 0 Z M-7 4 C-6.01 4.495 -6.01 4.495 -5 5 C-5.66 5.66 -6.32 6.32 -7 7 C-7 6.01 -7 5.02 -7 4 Z " fill="#F0F0F0" transform="translate(302,382)"/>
<path d="M0 0 C0.33 0 0.66 0 1 0 C1 2.64 1 5.28 1 8 C0.01 8 -0.98 8 -2 8 C-1.125 1.125 -1.125 1.125 0 0 Z " fill="#050505" transform="translate(333,321)"/>
</svg>
